<svg width="735" height="349" viewBox="0 0 735 349" fill="none" xmlns="http://www.w3.org/2000/svg">
<g clip-path="url(#clip0_26_60)">
<path d="M145.029 288.412L176.046 119.476H226.951L195.936 288.412H145.029Z" fill="#004B73"/>
<path d="M358.736 288.412H311.5L314.818 270.345C298.99 287.238 285.646 291.932 264.598 291.932C236.698 291.932 221.598 275.506 228.062 240.312L241.805 165.465H292.705L280.515 231.865C277.415 248.757 282.542 254.153 294.779 254.153C309.463 254.153 316.05 243.596 319.54 224.59L330.4 165.465H381.308L358.736 288.412Z" fill="#004B73"/>
<path d="M440.947 253.92L434.615 288.412H383.708L414.722 119.476H465.629L450.294 203.005L489.738 165.465H549.211L492.985 213.1L532.755 288.417H471.571L452.171 244.776L440.947 253.92Z" fill="#004B73"/>
<path d="M549.159 288.412H600.066L622.638 165.465H571.733L549.159 288.412Z" fill="#004B73"/>
<path d="M711.916 288.412C644.456 291.932 637.197 287.473 644.993 245.004L654.429 193.621H636.318L641.486 165.465H660.331L667.354 127.22H717.526L710.5 165.465H734.974L729.807 193.621H705.334L697.151 238.201C695.082 249.463 696.062 253.452 710.259 253.452H718.334L711.916 288.412Z" fill="#004B73"/>
<path d="M98.145 105.1C93.8689 102.788 89.1261 101.47 84.27 101.246C78.0846 107.581 72.5037 114.48 67.6 121.852C61.9589 130.352 57.4666 139.561 54.24 149.239C53.523 151.413 52.991 153.254 52.63 154.567C57.0122 160.331 63.0273 164.643 69.893 166.942C76.0564 168.892 82.6257 169.177 88.935 167.77C96.1988 166.221 102.742 162.302 107.535 156.628C118.963 142.969 114.262 126.048 113.944 124.974C113.775 124.405 113.517 123.593 113.144 122.614C110.359 115.194 105.049 108.993 98.145 105.1Z" fill="white"/>
<path d="M51.471 203.607C49.6994 196.168 48.8099 188.545 48.821 180.898C48.821 180.816 48.821 180.726 48.821 180.631V180.6C48.821 180.505 48.821 180.405 48.821 180.3V180.263C48.821 180.152 48.821 180.035 48.821 179.912V179.9C48.821 179.776 48.826 179.644 48.828 179.507C48.828 179.437 48.828 179.362 48.833 179.288C48.838 179.214 48.833 179.152 48.833 179.081C48.833 178.99 48.839 178.896 48.841 178.801L48.847 178.621C48.847 178.513 48.854 178.402 48.858 178.289L48.864 178.138C48.864 178.011 48.874 177.882 48.879 177.749V177.642C48.913 176.877 48.961 176.013 49.031 175.06C49.0543 174.742 49.08 174.414 49.108 174.076C49.154 173.522 49.208 172.933 49.271 172.328C49.28 172.244 49.288 172.162 49.297 172.077C49.3637 171.462 49.436 170.823 49.514 170.162L49.535 169.999C49.707 168.617 49.921 167.135 50.184 165.565L50.214 165.384C50.349 164.584 50.495 163.773 50.657 162.934V162.919C50.985 161.219 51.373 159.436 51.828 157.582L51.882 157.361C52.521 154.777 53.287 152.061 54.219 149.244C61.036 128.608 73.019 112.844 84.249 101.244C89.8944 95.5006 95.8429 90.0632 102.069 84.955C108.818 79.2993 115.954 74.122 123.425 69.461L160.682 0L14.868 78.19L0 159.138L38.208 228.451L51.528 203.605H51.486L51.471 203.607Z" fill="#004B73"/>
<path d="M84.27 101.241C89.1265 101.467 93.8694 102.786 98.145 105.1C105.05 108.994 110.361 115.197 113.145 122.619L134.278 83.1999C132.912 80.445 131.252 77.8461 129.326 75.4489C128.35 74.2388 127.31 73.0818 126.211 71.9829C125.201 70.9769 124.257 70.1379 123.446 69.4609C115.975 74.121 108.839 79.2972 102.09 84.9519C95.864 90.0601 89.9155 95.4976 84.27 101.241Z" fill="#A2D2FF"/>
<path d="M69.893 166.942C63.0273 164.643 57.0123 160.331 52.63 154.567C52.369 155.513 52.13 156.442 51.903 157.356L51.849 157.577C51.394 159.431 51.006 161.215 50.678 162.914V162.929C50.516 163.768 50.37 164.583 50.235 165.379L50.205 165.56C49.941 167.13 49.728 168.612 49.556 169.994L49.535 170.157C49.4544 170.819 49.382 171.457 49.318 172.072C49.309 172.157 49.301 172.239 49.292 172.323C49.231 172.923 49.175 173.517 49.129 174.071C49.101 174.409 49.0754 174.737 49.052 175.055C48.982 176.008 48.934 176.872 48.9 177.637V177.744C48.895 177.877 48.89 178.006 48.885 178.133L48.879 178.284C48.879 178.397 48.871 178.508 48.868 178.616L48.862 178.796C48.862 178.891 48.857 178.985 48.854 179.076C48.854 179.147 48.854 179.215 48.854 179.283C48.854 179.351 48.854 179.432 48.849 179.502C48.849 179.639 48.849 179.771 48.842 179.895V179.911C48.842 180.034 48.842 180.151 48.842 180.262V180.299C48.842 180.405 48.842 180.505 48.842 180.599V180.63C48.842 180.725 48.842 180.815 48.842 180.897C48.831 188.544 49.7204 196.166 51.492 203.606H51.507H51.549C58.1436 203.388 64.7009 202.524 71.127 201.027L85.578 174.072L88.956 167.772C82.6398 169.182 76.0628 168.896 69.893 166.942Z" fill="#A2D2FF"/>
<path d="M113.146 122.614C113.517 123.593 113.775 124.405 113.946 124.974C114.265 126.048 118.965 142.969 107.537 156.628C102.744 162.302 96.2008 166.221 88.9369 167.77L85.5589 174.07L71.1059 201.026L47.2679 245.487L104.324 348.143C123.924 241.893 143.524 135.643 163.124 29.394L134.278 83.2L113.146 122.614Z" fill="#004B73"/>
</g>
<defs>
<clipPath id="clip0_26_60">
<rect width="734.977" height="348.143" fill="white"/>
</clipPath>
</defs>
</svg>
